<mxfile host="app.diagrams.net" modified="2022-12-16T03:49:55.666Z" agent="5.0 (Windows NT 10.0; Win64; x64) AppleWebKit/537.36 (KHTML, like Gecko) Chrome/108.0.0.0 Safari/537.36" version="20.6.2" etag="i1fS9_jkuUkLZyy6abt1" type="github">
  <diagram id="-fgZZhkGJd7MP2mLf4tw" name="Page-1">
    <mxGraphModel dx="1422" dy="794" grid="1" gridSize="10" guides="1" tooltips="1" connect="1" arrows="1" fold="1" page="1" pageScale="1" pageWidth="850" pageHeight="1100" math="0" shadow="0">
      <root>
        <mxCell id="0" />
        <mxCell id="1" parent="0" />
        <mxCell id="SHBYjjYT15_cl3EExpvC-8" style="rounded=0;orthogonalLoop=1;jettySize=auto;html=1;exitX=1;exitY=0.5;exitDx=0;exitDy=0;entryX=0;entryY=0.5;entryDx=0;entryDy=0;" edge="1" parent="1" source="SHBYjjYT15_cl3EExpvC-1" target="SHBYjjYT15_cl3EExpvC-2">
          <mxGeometry relative="1" as="geometry" />
        </mxCell>
        <mxCell id="SHBYjjYT15_cl3EExpvC-1" value="Service&lt;br&gt;&lt;br&gt;&lt;br&gt;" style="whiteSpace=wrap;html=1;aspect=fixed;fontStyle=1" vertex="1" parent="1">
          <mxGeometry x="80" y="40" width="80" height="80" as="geometry" />
        </mxCell>
        <mxCell id="SHBYjjYT15_cl3EExpvC-10" style="edgeStyle=none;rounded=0;orthogonalLoop=1;jettySize=auto;html=1;exitX=1;exitY=0.5;exitDx=0;exitDy=0;entryX=0;entryY=0.5;entryDx=0;entryDy=0;" edge="1" parent="1" source="SHBYjjYT15_cl3EExpvC-2" target="SHBYjjYT15_cl3EExpvC-3">
          <mxGeometry relative="1" as="geometry" />
        </mxCell>
        <mxCell id="SHBYjjYT15_cl3EExpvC-17" style="edgeStyle=none;rounded=0;orthogonalLoop=1;jettySize=auto;html=1;exitX=1;exitY=0.5;exitDx=0;exitDy=0;entryX=0.5;entryY=0;entryDx=0;entryDy=0;" edge="1" parent="1" source="SHBYjjYT15_cl3EExpvC-2" target="SHBYjjYT15_cl3EExpvC-4">
          <mxGeometry relative="1" as="geometry" />
        </mxCell>
        <mxCell id="SHBYjjYT15_cl3EExpvC-2" value="Service&lt;br&gt;&lt;br&gt;&lt;br&gt;" style="whiteSpace=wrap;html=1;aspect=fixed;fontStyle=1" vertex="1" parent="1">
          <mxGeometry x="280" y="160" width="80" height="80" as="geometry" />
        </mxCell>
        <mxCell id="SHBYjjYT15_cl3EExpvC-3" value="Service&lt;br&gt;&lt;br&gt;&lt;br&gt;" style="whiteSpace=wrap;html=1;aspect=fixed;fontStyle=1" vertex="1" parent="1">
          <mxGeometry x="520" y="40" width="80" height="80" as="geometry" />
        </mxCell>
        <mxCell id="SHBYjjYT15_cl3EExpvC-16" style="edgeStyle=none;rounded=0;orthogonalLoop=1;jettySize=auto;html=1;exitX=0;exitY=0.5;exitDx=0;exitDy=0;entryX=1;entryY=0.5;entryDx=0;entryDy=0;entryPerimeter=0;" edge="1" parent="1" source="SHBYjjYT15_cl3EExpvC-4" target="SHBYjjYT15_cl3EExpvC-6">
          <mxGeometry relative="1" as="geometry" />
        </mxCell>
        <mxCell id="SHBYjjYT15_cl3EExpvC-4" value="Service&lt;br&gt;&lt;br&gt;&lt;br&gt;" style="whiteSpace=wrap;html=1;aspect=fixed;fontStyle=1" vertex="1" parent="1">
          <mxGeometry x="520" y="280" width="80" height="80" as="geometry" />
        </mxCell>
        <mxCell id="SHBYjjYT15_cl3EExpvC-5" value="DB" style="shape=cylinder3;whiteSpace=wrap;html=1;boundedLbl=1;backgroundOutline=1;size=15;fontStyle=1;fillColor=#fff2cc;strokeColor=#d6b656;" vertex="1" parent="1">
          <mxGeometry x="535" y="150" width="50" height="60" as="geometry" />
        </mxCell>
        <mxCell id="SHBYjjYT15_cl3EExpvC-6" value="DB" style="shape=cylinder3;whiteSpace=wrap;html=1;boundedLbl=1;backgroundOutline=1;size=15;fontStyle=1;fillColor=#fff2cc;strokeColor=#d6b656;" vertex="1" parent="1">
          <mxGeometry x="425" y="290" width="50" height="60" as="geometry" />
        </mxCell>
        <mxCell id="SHBYjjYT15_cl3EExpvC-14" value="" style="endArrow=classic;html=1;rounded=0;exitX=0.5;exitY=1;exitDx=0;exitDy=0;entryX=0.5;entryY=0;entryDx=0;entryDy=0;entryPerimeter=0;" edge="1" parent="1" source="SHBYjjYT15_cl3EExpvC-3" target="SHBYjjYT15_cl3EExpvC-5">
          <mxGeometry width="50" height="50" relative="1" as="geometry">
            <mxPoint x="400" y="410" as="sourcePoint" />
            <mxPoint x="450" y="360" as="targetPoint" />
          </mxGeometry>
        </mxCell>
        <mxCell id="SHBYjjYT15_cl3EExpvC-18" value="" style="triangle;whiteSpace=wrap;html=1;fillColor=#d80073;strokeColor=#A50040;fontColor=#ffffff;" vertex="1" parent="1">
          <mxGeometry x="110" y="75" width="30" height="40" as="geometry" />
        </mxCell>
        <mxCell id="SHBYjjYT15_cl3EExpvC-19" value="" style="ellipse;whiteSpace=wrap;html=1;aspect=fixed;fillColor=#1ba1e2;fontColor=#ffffff;strokeColor=#006EAF;" vertex="1" parent="1">
          <mxGeometry x="300" y="193" width="40" height="40" as="geometry" />
        </mxCell>
        <mxCell id="SHBYjjYT15_cl3EExpvC-21" value="" style="shape=hexagon;perimeter=hexagonPerimeter2;whiteSpace=wrap;html=1;fixedSize=1;fillColor=#008a00;fontColor=#ffffff;strokeColor=#005700;" vertex="1" parent="1">
          <mxGeometry x="540" y="316" width="40" height="40" as="geometry" />
        </mxCell>
        <mxCell id="SHBYjjYT15_cl3EExpvC-22" value="" style="shape=parallelogram;perimeter=parallelogramPerimeter;whiteSpace=wrap;html=1;fixedSize=1;fillColor=#6a00ff;fontColor=#ffffff;strokeColor=#3700CC;" vertex="1" parent="1">
          <mxGeometry x="527" y="80" width="60" height="30" as="geometry" />
        </mxCell>
      </root>
    </mxGraphModel>
  </diagram>
</mxfile>
